<svg width="455" height="593" viewBox="0 0 455 593" fill="none" xmlns="http://www.w3.org/2000/svg">
<path d="M23.612 83.9508C23.612 130.457 41.5971 208.876 -26.3175 293.648C-92.6533 376.45 -1.39314 114.254 90.2608 98.0256C197.398 79.0554 12.7582 518.301 3.23765 428.909C-2.08873 378.898 152.884 116.399 196.475 159.991C251.929 215.445 106.519 532.191 72.5649 526.981C12.6659 517.791 226.897 153.446 287.684 184.826C360.168 222.244 240.694 471.949 185.255 485.343C140.904 496.057 306.32 254.065 417.012 309.449" stroke="black" stroke-width="8" stroke-linecap="round"/>
<path d="M424.507 289.989C425.588 288.054 428.546 289.052 428.233 291.246L427.657 295.288C427.469 296.605 428.594 297.734 429.912 297.552L445.626 295.372C447.746 295.078 448.784 297.871 446.987 299.033L435.309 306.583C433.955 307.459 434.141 309.496 435.632 310.111L443.582 313.393C445.409 314.148 445.151 316.813 443.212 317.203L438.01 318.248C436.834 318.484 436.129 319.694 436.503 320.833L437.98 325.327C438.544 327.044 436.721 328.569 435.131 327.711L428.787 324.291C427.159 323.413 425.314 325.026 425.966 326.756L429.455 336.022C430.212 338.032 427.7 339.66 426.175 338.147L416.312 328.364C415.676 327.733 414.698 327.602 413.918 328.043L402.799 334.334C400.946 335.382 398.956 333.195 400.174 331.449L406.723 322.062C407.322 321.204 407.157 320.028 406.345 319.367L394.928 310.073C393.468 308.885 394.308 306.522 396.19 306.522H404.986C405.981 306.522 406.824 305.791 406.966 304.807L408.345 295.245C408.643 293.176 411.514 292.894 412.21 294.864L414.444 301.188C415.018 302.811 417.237 303 418.076 301.497L424.507 289.989Z" fill="#CD4631"/>
</svg>
