<svg width="533" height="593" viewBox="0 0 533 593" fill="none" xmlns="http://www.w3.org/2000/svg">
<path d="M101.612 83.9508C101.612 130.457 119.597 208.876 51.6825 293.648C-14.6533 376.45 76.6069 114.254 168.261 98.0256C275.398 79.0554 90.7582 518.301 81.2377 428.909C75.9113 378.898 230.884 116.399 274.475 159.991C329.929 215.445 184.519 532.191 150.565 526.981C90.6659 517.791 304.897 153.446 365.684 184.826C438.168 222.244 318.694 471.949 263.255 485.343C218.904 496.057 384.32 254.065 495.012 309.449" stroke="black" stroke-width="8" stroke-linecap="round"/>
<path d="M502.507 289.989C503.588 288.054 506.546 289.052 506.233 291.246L505.657 295.288C505.469 296.605 506.594 297.734 507.912 297.552L523.626 295.372C525.746 295.078 526.784 297.871 524.987 299.033L513.309 306.583C511.955 307.459 512.141 309.496 513.632 310.111L521.582 313.393C523.409 314.148 523.151 316.813 521.212 317.203L516.01 318.248C514.834 318.484 514.129 319.694 514.503 320.833L515.98 325.327C516.544 327.044 514.721 328.569 513.131 327.711L506.787 324.291C505.159 323.413 503.314 325.026 503.966 326.756L507.455 336.022C508.212 338.032 505.7 339.66 504.175 338.147L494.312 328.364C493.676 327.733 492.698 327.602 491.918 328.043L480.799 334.334C478.946 335.382 476.956 333.195 478.174 331.449L484.723 322.062C485.322 321.204 485.157 320.028 484.345 319.367L472.928 310.073C471.468 308.885 472.308 306.522 474.19 306.522H482.986C483.981 306.522 484.824 305.791 484.966 304.807L486.345 295.245C486.643 293.176 489.514 292.894 490.21 294.864L492.444 301.188C493.018 302.811 495.237 303 496.076 301.497L502.507 289.989Z" fill="#CD4631"/>
</svg>
