<svg width="156" height="217" viewBox="0 0 156 217" fill="none" xmlns="http://www.w3.org/2000/svg">
<path fill-rule="evenodd" clip-rule="evenodd" d="M74.6984 150.272C75.055 149.056 75.405 147.837 75.7503 146.615C75.8501 146.263 75.9494 145.91 76.0484 145.557C76.2622 144.794 76.4744 144.031 76.6853 143.267C77.3216 140.963 77.9469 138.654 78.573 136.341C80.978 127.458 83.3941 118.534 86.486 109.741C88.4506 103.951 92.7728 98.7706 97.0949 93.5899C99.0595 90.8472 102.989 88.4093 106.918 87.1903C107.459 87.0377 108 86.8875 108.541 86.7402C115.724 84.7854 122.941 83.3433 130.643 83.6365C130.672 83.6377 130.702 83.6388 130.732 83.64C131.692 83.6782 132.66 83.7435 133.636 83.8381C136.316 84.1579 138.887 84.3937 141.464 84.5897C142.403 84.6611 143.342 84.7272 144.288 84.7902C144.581 84.8097 144.875 84.8289 145.17 84.8479C145.328 84.8581 145.486 84.8682 145.644 84.8782C145.663 84.8794 145.682 84.8806 145.701 84.8818C146.646 84.9416 147.6 84.9994 148.567 85.0571C151.711 85.3618 155.247 85.0571 155.247 82.3144C155.247 80.7907 153.282 78.6575 151.711 77.1338C151.117 76.6733 150.324 76.3675 149.432 76.1383C149.324 76.1106 149.215 76.0841 149.104 76.0584C148.314 75.8754 147.458 75.7427 146.603 75.61C145.615 75.5079 144.638 75.3886 143.671 75.2637C143.104 75.1906 142.54 75.1154 141.98 75.0407C139.536 74.7151 137.146 74.3966 134.777 74.2758C134.706 74.2722 134.635 74.2687 134.565 74.2655C132.939 74.1908 131.323 74.212 129.707 74.3911C122.12 75.1586 115.087 74.2079 108.608 72.2602C107.37 71.8878 106.151 71.4791 104.953 71.0389C93.1657 66.4677 83.7356 59.4586 84.1285 47.8784C84.1285 43.2056 84.4778 38.5329 84.827 33.8601C85.0017 31.5238 85.1763 29.1874 85.3073 26.8511C85.3974 25.384 85.4874 23.933 85.5775 22.4906C85.6839 20.787 85.7903 19.0955 85.8967 17.404C85.9336 16.8169 85.9705 16.2297 86.0074 15.6421C86.0693 14.6574 86.1312 13.6712 86.1931 12.6812C86.2051 12.4891 86.2171 12.2967 86.2291 12.1042C86.2553 11.6856 86.2814 11.2663 86.3075 10.846C86.3332 10.4322 86.3589 10.0174 86.3847 9.60162C86.4185 9.05539 86.4523 8.50729 86.486 7.95694C86.486 7.57112 86.5112 7.18531 86.5361 6.80444C86.6095 5.68113 86.68 4.60085 86.0931 3.69053C84.9144 2.16681 82.9498 0.0335989 81.3781 0.0335989C79.8064 -0.271145 77.4489 1.55732 76.2701 3.08104C75.67 4.01188 75.4773 5.0217 75.2771 6.07029C75.2027 6.46004 75.1273 6.85514 75.0296 7.25354C74.9723 7.48701 74.9073 7.72162 74.8304 7.95694C74.6981 8.36185 74.5304 8.76888 74.3055 9.17591C74.1852 9.66579 74.0672 10.1575 73.9508 10.6505C73.6722 11.8302 73.4028 13.0179 73.1329 14.2077C72.668 16.2575 72.2015 18.3139 71.6842 20.3483C70.9877 23.087 70.199 25.7859 69.1976 28.3748C59.3745 53.3638 42.479 72.8674 6.33022 78.048C3.57977 78.3527 0.436405 80.7907 0.0434852 82.6191C-0.309162 84.2602 1.5537 86.3922 3.07553 88.1339C3.24932 88.3328 3.41867 88.5266 3.57977 88.714C4.50052 89.6662 6.14047 90.4324 7.75058 90.8675C7.89517 90.9065 8.03951 90.9429 8.18307 90.9765C8.48751 91.0478 8.78843 91.1066 9.08066 91.152C9.43381 91.2068 9.78464 91.2647 10.1332 91.3259C10.4312 91.3781 10.7276 91.4327 11.0224 91.4895C22.8375 93.7655 32.0582 99.6274 41.3636 105.543C42.1273 106.029 42.8915 106.514 43.6577 106.999C53.8737 113.398 59.3746 121.931 61.3392 131.988C61.8736 135.304 62.2263 138.62 62.5209 141.936C62.6594 143.496 62.7851 145.056 62.9108 146.615C62.9108 146.683 62.9107 146.75 62.9104 146.818C62.9103 146.844 62.9102 146.869 62.9101 146.895C62.9074 147.413 62.8975 147.936 62.8836 148.464C62.8675 149.077 62.8462 149.695 62.8247 150.317C62.8051 150.885 62.7854 151.455 62.7696 152.025C62.7583 152.432 62.749 152.839 62.7431 153.246C62.7203 154.817 62.7485 156.38 62.9108 157.891C62.9108 159.415 65.6613 161.548 67.233 161.548C68.8046 161.548 71.5551 159.719 72.3409 158.196C72.4061 158.095 72.4685 157.993 72.5284 157.891C72.7386 157.533 72.9176 157.169 73.0727 156.799C73.5932 155.559 73.8443 154.26 74.1 152.938C74.2414 152.206 74.3843 151.467 74.5748 150.728C74.6139 150.576 74.655 150.424 74.6984 150.272ZM70.0543 114.996C71.0632 111.679 72.1249 108.382 73.2558 105.163C76.0872 96.883 81.8749 89.9649 85.7741 85.3041C85.8803 85.1771 85.9852 85.0518 86.0885 84.9282C87.5066 83.0548 89.1848 81.4034 90.9969 79.9685C82.1822 75.0978 73.2852 67.415 70.7977 55.4569C66.9044 61.1306 62.3049 66.4493 56.8088 71.2159C50.3175 76.8457 42.8273 81.4872 34.21 85.0431C39.5999 87.8019 44.3778 90.853 48.6486 93.5803C49.4904 94.1178 50.3125 94.6428 51.1158 95.1505C59.653 100.504 65.9218 107.232 70.0543 114.996Z" fill="#81ADC8"/>
<path fill-rule="evenodd" clip-rule="evenodd" d="M125.289 190.009C125.209 190.298 125.129 190.586 125.048 190.875C125.011 191.009 124.973 191.144 124.935 191.279C124.803 191.745 124.669 192.211 124.533 192.676C124.435 193.016 124.369 193.357 124.304 193.694C124.206 194.199 124.111 194.695 123.912 195.169C123.853 195.31 123.784 195.449 123.704 195.586C123.681 195.625 123.657 195.664 123.632 195.702C123.332 196.284 122.281 196.983 121.681 196.983C121.081 196.983 120.03 196.168 120.03 195.586C119.968 195.009 119.957 194.412 119.966 193.811C119.968 193.656 119.972 193.501 119.976 193.345C119.982 193.127 119.99 192.91 119.997 192.693C120.013 192.251 120.028 191.813 120.03 191.386C120.03 191.376 120.03 191.366 120.03 191.356C120.03 191.33 120.03 191.305 120.03 191.279C119.975 190.594 119.92 189.909 119.857 189.224C119.749 188.047 119.62 186.869 119.43 185.692C119.276 184.904 119.066 184.142 118.795 183.406C117.743 180.549 115.779 178.09 112.676 176.146C112.383 175.961 112.091 175.776 111.8 175.59C109.675 174.239 107.561 172.896 105.24 171.848C104.463 171.497 103.663 171.179 102.831 170.905C101.767 170.555 100.652 170.277 99.4686 170.093C99.3569 170.076 99.242 170.054 99.1257 170.026C99.0709 170.014 99.0157 170 98.9605 169.985C98.3455 169.819 97.7191 169.526 97.3674 169.162C97.3058 169.091 97.2412 169.017 97.1748 168.941C96.5935 168.275 95.8819 167.461 96.0166 166.834C96.1667 166.136 97.3674 165.205 98.418 165.088C99.0587 164.996 99.6836 164.893 100.293 164.778C101.005 164.643 101.696 164.493 102.366 164.328C102.669 164.254 102.967 164.176 103.262 164.096C103.291 164.088 103.32 164.08 103.35 164.072C104.108 163.862 104.839 163.633 105.544 163.384C112.649 160.877 117.139 156.418 120.21 150.876C121.048 149.363 121.781 147.77 122.432 146.114C122.547 145.815 122.656 145.512 122.758 145.206C122.761 145.196 122.765 145.185 122.768 145.175C123.074 144.255 123.324 143.306 123.554 142.35C123.685 141.803 123.81 141.252 123.935 140.703C123.952 140.627 123.969 140.551 123.986 140.475C124.043 140.228 124.099 139.981 124.156 139.734C124.23 139.415 124.305 139.097 124.383 138.781C124.469 138.625 124.533 138.47 124.583 138.315C124.613 138.225 124.637 138.136 124.659 138.047C124.697 137.894 124.725 137.744 124.754 137.595C124.83 137.194 124.904 136.808 125.133 136.453C125.583 135.871 126.484 135.172 127.084 135.289C127.684 135.289 128.435 136.104 128.885 136.686C129.109 137.033 129.082 137.446 129.054 137.875C129.045 138.021 129.035 138.168 129.035 138.315C129.022 138.526 129.009 138.735 128.997 138.944C128.987 139.102 128.977 139.261 128.967 139.419C128.957 139.579 128.947 139.74 128.937 139.899C128.909 140.352 128.881 140.802 128.852 141.251C128.838 141.475 128.824 141.7 128.81 141.924C128.787 142.297 128.763 142.669 128.74 143.043C128.688 143.865 128.637 144.692 128.585 145.532C128.535 146.425 128.468 147.317 128.402 148.21C128.396 148.279 128.391 148.348 128.386 148.418C128.385 148.43 128.384 148.442 128.383 148.454C128.271 149.961 128.163 151.468 128.139 152.975C128.136 153.172 128.135 153.368 128.135 153.564C128.014 157.112 130.307 159.536 133.543 161.258C133.933 161.466 134.337 161.663 134.752 161.851C134.824 161.884 134.896 161.916 134.969 161.948C135.335 162.109 135.709 162.263 136.089 162.411C138.941 163.458 142.093 164.04 145.545 163.691C146.162 163.623 146.779 163.615 147.4 163.643C147.427 163.645 147.454 163.646 147.481 163.647C147.652 163.656 147.823 163.667 147.995 163.681C148.731 163.739 149.475 163.839 150.232 163.939C150.812 164.017 151.4 164.095 151.998 164.157C152.325 164.208 152.652 164.258 152.954 164.328C152.996 164.338 153.038 164.348 153.079 164.359C153.42 164.446 153.723 164.563 153.949 164.739C154.55 165.321 155.3 166.136 155.3 166.718C155.3 167.765 153.949 167.882 152.749 167.765C152.379 167.743 152.015 167.721 151.654 167.698C151.647 167.698 151.639 167.698 151.632 167.697C151.572 167.693 151.511 167.689 151.451 167.685C151.338 167.678 151.226 167.671 151.114 167.663C149.852 167.579 148.619 167.481 147.326 167.333C147.233 167.322 147.139 167.311 147.045 167.3C146.672 167.264 146.303 167.239 145.936 167.224C145.925 167.224 145.913 167.223 145.902 167.223C142.738 167.102 139.789 167.748 136.84 168.58C135.783 168.908 134.726 169.467 133.931 170.134C133.597 170.415 133.31 170.715 133.088 171.025C131.437 173.004 129.786 174.982 129.035 177.194C128.317 179.235 127.695 181.295 127.111 183.359C127.028 183.652 126.946 183.946 126.864 184.239C126.839 184.328 126.815 184.417 126.79 184.505C126.527 185.455 126.27 186.406 126.013 187.355C125.773 188.241 125.533 189.126 125.289 190.009ZM121.904 173.461C123.212 170.378 125.307 167.854 126.618 166.29C124.999 165.063 123.471 163.544 122.305 161.672C121.422 162.648 120.469 163.587 119.437 164.482C117.964 165.76 116.374 166.909 114.662 167.927C115.124 168.217 115.566 168.5 115.988 168.77C116.317 168.981 116.633 169.184 116.938 169.376C118.849 170.575 120.503 171.945 121.904 173.461Z" fill="#CD4631"/>
<path fill-rule="evenodd" clip-rule="evenodd" d="M36.3916 210.708C36.2471 211.241 36.1018 211.772 35.9532 212.302C35.9298 212.386 35.9063 212.469 35.8828 212.552C35.8013 212.841 35.7186 213.128 35.6345 213.416C35.5741 213.626 35.5334 213.837 35.4932 214.045C35.4328 214.357 35.3735 214.664 35.2507 214.956C35.2141 215.044 35.1718 215.13 35.1222 215.214C35.108 215.238 35.0933 215.262 35.0779 215.286C34.8924 215.646 34.2431 216.077 33.8721 216.077C33.501 216.077 32.8517 215.574 32.8517 215.214C32.8134 214.857 32.8067 214.489 32.8121 214.117C32.8135 214.022 32.8157 213.925 32.8184 213.829C32.8221 213.695 32.8267 213.56 32.8314 213.426C32.8408 213.153 32.8502 212.882 32.8515 212.618C32.8516 212.612 32.8516 212.606 32.8516 212.6C32.8517 212.584 32.8517 212.568 32.8517 212.552C32.7891 211.775 32.7264 210.998 32.6353 210.221C32.5914 209.847 32.5409 209.473 32.4807 209.099C32.2809 208.076 31.9261 207.12 31.3942 206.242C30.6914 205.083 29.6793 204.06 28.3065 203.2C28.1256 203.085 27.9452 202.971 27.7649 202.856C26.885 202.297 26.0082 201.739 25.094 201.238C24.4939 200.908 23.8778 200.603 23.234 200.337C22.2774 199.941 21.2599 199.632 20.1437 199.459C20.0747 199.448 20.0037 199.434 19.9318 199.417C19.8979 199.409 19.8639 199.401 19.8297 199.392C19.4496 199.289 19.0625 199.108 18.8451 198.883C18.8071 198.839 18.7671 198.793 18.7261 198.746C18.3668 198.335 17.927 197.832 18.0103 197.444C18.103 197.013 18.8451 196.437 19.4944 196.365C19.8904 196.308 20.2766 196.244 20.6533 196.173C21.0932 196.09 21.5201 195.998 21.9345 195.896C22.1215 195.85 22.306 195.802 22.4879 195.752C22.8562 195.651 23.2142 195.543 23.5623 195.427C24.1921 195.218 24.7895 194.984 25.3566 194.728C28.1997 193.442 30.28 191.587 31.8576 189.35C31.8827 189.314 31.9077 189.279 31.9326 189.243C31.9779 189.178 32.0227 189.112 32.0672 189.046C32.9788 187.696 33.7168 186.213 34.3358 184.639C34.4074 184.454 34.4743 184.266 34.5375 184.077C34.5396 184.071 34.5417 184.064 34.5438 184.058C34.6195 183.83 34.6897 183.599 34.7558 183.367C34.9492 182.686 35.1074 181.988 35.2649 181.294C35.2755 181.247 35.2862 181.2 35.2968 181.154C35.3315 181.001 35.3663 180.848 35.4016 180.696C35.4473 180.498 35.4937 180.302 35.5417 180.106C35.5948 180.01 35.6344 179.914 35.6656 179.818C35.6838 179.763 35.6991 179.708 35.7126 179.652C35.7357 179.558 35.7535 179.465 35.7711 179.373C35.8183 179.126 35.8638 178.887 36.0055 178.667C36.2838 178.308 36.8403 177.876 37.2114 177.948C37.5824 177.948 38.0462 178.452 38.3245 178.811C38.463 179.026 38.4464 179.281 38.4291 179.546C38.4232 179.636 38.4172 179.727 38.4172 179.818C38.4093 179.948 38.4013 180.078 38.3933 180.207C38.3872 180.305 38.3812 180.403 38.3751 180.501C38.3689 180.6 38.3628 180.699 38.3566 180.798C38.3391 181.077 38.3217 181.355 38.3042 181.633C38.2955 181.772 38.2868 181.91 38.2781 182.049C38.2408 182.642 38.2034 183.236 38.1661 183.839C38.157 183.985 38.148 184.132 38.139 184.279C38.108 184.83 38.0668 185.382 38.0256 185.934C38.0224 185.976 38.0192 186.019 38.016 186.062C38.0154 186.07 38.0149 186.077 38.0143 186.085C37.9358 187.137 37.8607 188.19 37.8607 189.243C37.8423 189.786 37.9153 190.286 38.066 190.748C38.4039 191.783 39.1325 192.625 40.096 193.316C40.647 193.712 41.2749 194.059 41.9504 194.364C41.995 194.385 42.0397 194.405 42.0846 194.424C42.3107 194.524 42.5418 194.619 42.7769 194.711C44.5393 195.358 46.4873 195.718 48.6207 195.502C48.7467 195.488 48.8727 195.478 48.9987 195.472C49.2544 195.459 49.5103 195.46 49.7674 195.472C49.7841 195.473 49.8009 195.474 49.8176 195.475C50.3768 195.503 50.9411 195.578 51.5179 195.655C51.8763 195.703 52.2395 195.751 52.6093 195.79C52.8113 195.821 53.0132 195.852 53.1999 195.896C53.226 195.902 53.2518 195.908 53.2772 195.914C53.4878 195.968 53.675 196.041 53.8152 196.149C54.1862 196.509 54.65 197.013 54.65 197.372C54.65 198.02 53.8152 198.092 53.0731 198.02C52.8447 198.006 52.6196 197.993 52.3966 197.979C52.3921 197.978 52.3876 197.978 52.3831 197.978C52.3457 197.975 52.3083 197.973 52.271 197.971C52.2015 197.966 52.1321 197.961 52.0629 197.957C51.2269 197.901 50.4113 197.835 49.5483 197.732C49.3178 197.71 49.0893 197.694 48.8626 197.685C48.8556 197.685 48.8485 197.685 48.8415 197.685C48.7804 197.682 48.7193 197.68 48.6584 197.679C46.7724 197.635 45.0065 198.025 43.2407 198.523C42.3131 198.811 41.3855 199.387 40.9217 200.034C40.8617 200.106 40.8017 200.178 40.7417 200.25C40.7195 200.277 40.6972 200.304 40.675 200.33C39.7403 201.456 38.8436 202.591 38.4172 203.847C38.1911 204.49 37.9803 205.136 37.7802 205.784C37.5318 206.588 37.2998 207.394 37.0752 208.201C37.06 208.256 37.0448 208.311 37.0296 208.366C36.867 208.953 36.7079 209.54 36.5491 210.127C36.4966 210.321 36.4441 210.515 36.3916 210.708ZM33.7106 199.771C34.2678 198.785 34.8974 197.929 35.438 197.251C34.9806 196.844 34.5421 196.395 34.1385 195.901C33.8303 196.204 33.51 196.499 33.1769 196.788C32.6369 197.257 32.0735 197.698 31.4864 198.112C31.492 198.115 31.4976 198.119 31.5032 198.122C32.3063 198.626 33.0421 199.177 33.7106 199.771Z" fill="black"/>
</svg>
